<?xml version="1.0" encoding="utf-8"?>
<!-- Generator: Adobe Illustrator 18.0.0, SVG Export Plug-In . SVG Version: 6.00 Build 0)  -->
<!DOCTYPE svg PUBLIC "-//W3C//DTD SVG 1.1//EN" "http://www.w3.org/Graphics/SVG/1.1/DTD/svg11.dtd">
<svg version="1.1" id="图层_1" xmlns="http://www.w3.org/2000/svg" xmlns:xlink="http://www.w3.org/1999/xlink" x="0px" y="0px"
	 viewBox="0 0 595.3 841.9" enable-background="new 0 0 595.3 841.9" xml:space="preserve">
<g>
	<g>
		<defs>
			<rect id="SVGID_1_" x="-89" y="46.9" width="772.8" height="749.8"/>
		</defs>
		<clipPath id="SVGID_2_">
			<use xlink:href="#SVGID_1_"  overflow="visible"/>
		</clipPath>
		<path clip-path="url(#SVGID_2_)" d="M642.3,52.6c23.4,0,41,17.6,41,41v661.2c0,23.4-17.6,41-41,41H-48.2c-23.4,0-41-17.6-41-41
			V87.7c0-23.4,17.6-41,41-41h690.5V52.6z M150.8,368.5l-158,158l158,158l46.8-46.8L86.4,526.5l111.2-111.2L150.8,368.5z
			 M443.4,368.5l-46.8,46.8l111.2,111.2L396.5,637.7l46.8,46.8l158-158L443.4,368.5z M291.2,368.5l-52.7,304.3l64.4,11.7l52.7-304.3
			L291.2,368.5z M566.2,169.6H27.9v76.1h538.3V169.6z M566.2,169.6"/>
	</g>
</g>
</svg>
