<?xml version="1.0" standalone="no"?><!DOCTYPE svg PUBLIC "-//W3C//DTD SVG 1.1//EN" "http://www.w3.org/Graphics/SVG/1.1/DTD/svg11.dtd"><svg t="1617691646773" class="icon" viewBox="0 0 1024 1024" version="1.1" xmlns="http://www.w3.org/2000/svg" p-id="14859" xmlns:xlink="http://www.w3.org/1999/xlink" width="32" height="32"><defs><style type="text/css"></style></defs><path d="M472.1 136.7L105 551.8c-17.8 20.1-3.5 51.8 23.3 51.8h767.3c26.9 0 41.1-31.7 23.3-51.8l-367-415.1c-21.2-23.9-58.6-23.9-79.8 0z" p-id="14860"></path><path d="M192 521.2v320c0 35.3 28.7 64 64 64h128c17.7 0 32-14.3 32-32v-192c0-17.7 14.3-32 32-32h128c17.7 0 32 14.3 32 32v192c0 17.7 14.3 32 32 32h128c35.3 0 64-28.7 64-64v-320H192z" p-id="14861"></path></svg>