<?xml version="1.0" encoding="utf-8"?>
<!-- Generator: Adobe Illustrator 18.0.0, SVG Export Plug-In . SVG Version: 6.00 Build 0)  -->
<!DOCTYPE svg PUBLIC "-//W3C//DTD SVG 1.1//EN" "http://www.w3.org/Graphics/SVG/1.1/DTD/svg11.dtd">
<svg version="1.1" id="图层_1" xmlns="http://www.w3.org/2000/svg" xmlns:xlink="http://www.w3.org/1999/xlink" x="0px" y="0px"
	 viewBox="0 0 595.3 841.9" enable-background="new 0 0 595.3 841.9" xml:space="preserve">
<g>
	<path d="M288.7,470.3h-16.4v-37.7c47.5-14.7,81.9-57.3,81.9-109.8c18,0,32.8-21.3,32.8-49.2c0-27.9-14.7-49.2-32.8-49.2
		c0-63.9-50.8-114.7-114.7-114.7h-32.8c-63.9,0-114.7,50.8-114.7,114.7c-18,0-32.8,21.3-32.8,49.2c0,27.9,14.7,49.2,32.8,49.2
		c0,52.4,34.4,95,81.9,109.8v37.7h-16.4C49.5,470.3-39,558.8-39,666.9c0,36,29.5,65.5,65.5,65.5h393.2c36,0,65.5-29.5,65.5-65.5
		C485.3,558.8,396.8,470.3,288.7,470.3L288.7,470.3z M436.1,241H600c18,0,32.8-14.7,32.8-32.8c0-18-14.7-32.8-32.8-32.8H436.1
		c-18,0-32.8,14.7-32.8,32.8C403.4,226.2,418.1,241,436.1,241L436.1,241z M600,388.4H436.1c-18,0-32.8,14.7-32.8,32.8
		c0,18,14.7,32.8,32.8,32.8H600c18,0,32.8-14.7,32.8-32.8C632.7,403.2,618,388.4,600,388.4L600,388.4z M600,601.4h-32.8
		c-18,0-32.8,14.7-32.8,32.8c0,18,14.7,32.8,32.8,32.8H600c18,0,32.8-14.7,32.8-32.8C632.7,616.2,618,601.4,600,601.4L600,601.4z
		 M600,601.4"/>
</g>
</svg>
