<?xml version="1.0" standalone="no"?><!DOCTYPE svg PUBLIC "-//W3C//DTD SVG 1.1//EN" "http://www.w3.org/Graphics/SVG/1.1/DTD/svg11.dtd"><svg class="icon" width="200px" height="200.00px" viewBox="0 0 1024 1024" version="1.1" xmlns="http://www.w3.org/2000/svg"><path  d="M820.756859 81.370234h-423.271172v2.067704c-2.310963 1.094667-4.621927 2.554223-6.568001 4.500297L177.336026 301.763155c-1.946074 1.946074-3.284 4.013778-4.378668 6.324741H170.646395v604.742606c0 16.663262 13.500891 30.285782 30.285782 30.285783h619.824682c16.663262 0 30.285782-13.500891 30.285783-30.285783V111.534387c-0.12163-16.663262-13.62252-30.164153-30.285783-30.164153z m-423.392802 61.058083v165.659579h-165.41632l165.41632-165.659579z m408.310726 755.320109H216.014253V353.455755h226.717663V126.738092H805.553154v771.010334zM356.618126 573.240527c-10.946668 11.068298-10.946668 28.826226 0 39.894525l79.667419 79.789048c6.324742 6.324742 14.838817 9.000594 23.109633 8.027557 6.203112-0.364889 12.406224-3.162371 17.14978-8.270816l188.525953-200.445659c10.46015-11.068298 10.46015-29.069486 0-40.137783-10.46015-11.068298-27.245041-11.068298-37.705191 0L456.840955 633.568832l-60.328305-60.328305c-11.068298-11.068298-28.826226-11.068298-39.894524 0z m0 0"  /></svg>