<?xml version="1.0" encoding="utf-8"?>
<!-- Generator: Adobe Illustrator 18.0.0, SVG Export Plug-In . SVG Version: 6.00 Build 0)  -->
<!DOCTYPE svg PUBLIC "-//W3C//DTD SVG 1.1//EN" "http://www.w3.org/Graphics/SVG/1.1/DTD/svg11.dtd">
<svg version="1.1" id="图层_1" xmlns="http://www.w3.org/2000/svg" xmlns:xlink="http://www.w3.org/1999/xlink" x="0px" y="0px"
	 viewBox="0 0 595.3 841.9" enable-background="new 0 0 595.3 841.9" xml:space="preserve">
<path d="M600.9,89.6H97.8c-22.2,0-43.6,8.8-59.3,24.6C22.8,129.9,14,151.3,14,173.5v581.6c1,61.7,81.7,85.3,118.4,35.8L282,589
	c15.8-21.4,40.8-34,67.4-34c26.6,0,51.6,12.6,67.4,34l149.6,202c36.7,49.5,117.4,25.9,118.4-35.8V173.5
	C684.8,127.2,647.3,89.6,600.9,89.6L600.9,89.6z M316.3,395.5H183.9c-47.1-0.6-85-39-85-86.1c0-47.1,37.9-85.5,85-86.1h132.4
	c8.2,0,16.3,1.2,24.1,3.5c-15.9,8.2-29.1,20.7-38.1,36.2H183.9c-25.6,0-46.3,20.8-46.3,46.4c0,25.6,20.7,46.4,46.3,46.4h132.4
	c17.4,0,33.4-9.7,41.3-25.3s6.4-34.2-3.8-48.2c7.4-8,17.8-12.5,28.7-12.6h10.1c13.9,26.7,12.9,58.7-2.7,84.4
	C374.3,379.9,346.4,395.6,316.3,395.5L316.3,395.5z M514.9,395.5H382.5c-8.2,0-16.4-1.2-24.2-3.5c15.9-8.2,29.2-20.7,38.2-36.2
	h118.4c25.6,0,46.4-20.8,46.4-46.4c0-25.6-20.8-46.4-46.4-46.4H382.5c-17.4,0-33.4,9.8-41.3,25.3c-7.9,15.6-6.4,34.2,3.9,48.3
	c-7.5,8-17.9,12.5-28.8,12.5h-10.1c-13.9-26.7-12.9-58.7,2.7-84.4c15.6-25.7,43.5-41.4,73.6-41.4h132.4c47.5,0,86.1,38.5,86.1,86.1
	C601,357,562.4,395.5,514.9,395.5L514.9,395.5z"/>
<path d="M514.9,338.8"/>
</svg>
