<?xml version="1.0" standalone="no"?><!DOCTYPE svg PUBLIC "-//W3C//DTD SVG 1.1//EN" "http://www.w3.org/Graphics/SVG/1.1/DTD/svg11.dtd"><svg class="icon" width="200px" height="200.00px" viewBox="0 0 1024 1024" version="1.1" xmlns="http://www.w3.org/2000/svg"><path  d="M210.823529 587.294118c-16.564706 0-30.117647-13.552941-30.117647-30.117647v-120.470589c0-16.564706 13.552941-30.117647 30.117647-30.117647s30.117647 13.552941 30.117647 30.117647v120.470589c0 16.564706-13.552941 30.117647-30.117647 30.117647zM361.411765 587.294118c-16.564706 0-30.117647-13.552941-30.117647-30.117647v-240.941177c0-16.564706 13.552941-30.117647 30.117647-30.117647s30.117647 13.552941 30.117647 30.117647v240.941177c0 16.564706-13.552941 30.117647-30.117647 30.117647zM512 587.294118c-16.564706 0-30.117647-13.552941-30.117647-30.117647v-180.705883c0-16.564706 13.552941-30.117647 30.117647-30.117647s30.117647 13.552941 30.117647 30.117647v180.705883c0 16.564706-13.552941 30.117647-30.117647 30.117647zM662.588235 587.294118c-16.564706 0-30.117647-13.552941-30.117647-30.117647v-60.235295c0-16.564706 13.552941-30.117647 30.117647-30.117647s30.117647 13.552941 30.117647 30.117647v60.235295c0 16.564706-13.552941 30.117647-30.117647 30.117647zM813.176471 587.294118c-16.564706 0-30.117647-13.552941-30.117647-30.117647v-210.82353c0-16.564706 13.552941-30.117647 30.117647-30.117647s30.117647 13.552941 30.117647 30.117647v210.82353c0 16.564706-13.552941 30.117647-30.117647 30.117647z"  /><path  d="M993.882353 165.647059H30.117647c-16.564706 0-30.117647 13.552941-30.117647 30.117647v572.235294c0 16.564706 13.552941 30.117647 30.117647 30.117647h451.764706v30.117647h-120.470588c-16.564706 0-30.117647 13.552941-30.117647 30.117647s13.552941 30.117647 30.117647 30.117647h301.17647c16.564706 0 30.117647-13.552941 30.117647-30.117647s-13.552941-30.117647-30.117647-30.117647h-120.470588v-30.117647h451.764706c16.564706 0 30.117647-13.552941 30.117647-30.117647v-572.235294c0-16.564706-13.552941-30.117647-30.117647-30.117647z m-30.117647 60.235294v421.647059H60.235294v-421.647059h903.529412z m0 512H60.235294v-30.117647h903.529412v30.117647z"  /></svg>