<?xml version="1.0" standalone="no"?><!DOCTYPE svg PUBLIC "-//W3C//DTD SVG 1.1//EN" "http://www.w3.org/Graphics/SVG/1.1/DTD/svg11.dtd"><svg class="icon" width="200px" height="200.00px" viewBox="0 0 1024 1024" version="1.1" xmlns="http://www.w3.org/2000/svg"><path fill="#e6e6e6" d="M901.4 696.3l-83-39.5-268.5 127.7-37.8 18-37.7-18-268.7-127.7-83.1 39.5c-6.5 3.1-10.5 9.4-10.5 16.3s4.1 13.2 10.5 16.3L503.5 910c5.4 2.6 11.8 2.6 17.1 0l380.8-181c6.5-3.1 10.5-9.4 10.5-16.3 0.1-7-4-13.3-10.5-16.4zM122.6 327.6l380.8 181.1c5.4 2.5 11.7 2.5 17.1 0l380.8-181.1c6.5-3.1 10.6-9.4 10.6-16.3s-4.1-13.2-10.6-16.3L520.7 113.9c-5.4-2.5-11.8-2.5-17.2 0L122.6 295.1c-6.5 3.1-10.6 9.4-10.6 16.3s4.1 13.2 10.6 16.3v-0.1z m0 0M901.1 494.7l-80.8-38.6-270.5 128.6-37.7 18-37.8-18-270.5-128.6-80.8 38.4c-6.6 3.1-10.7 9.5-10.7 16.4 0 7 4.1 13.3 10.7 16.4l380.4 180.9c5.4 2.6 11.9 2.6 17.3 0L901 527.4c6.6-3 10.8-9.4 10.9-16.4 0-6.9-4.2-13.3-10.8-16.3z m0 0" /></svg>