<?xml version="1.0" standalone="no"?><!DOCTYPE svg PUBLIC "-//W3C//DTD SVG 1.1//EN" "http://www.w3.org/Graphics/SVG/1.1/DTD/svg11.dtd"><svg class="icon" width="200px" height="200.00px" viewBox="0 0 1024 1024" version="1.1" xmlns="http://www.w3.org/2000/svg"><path fill="#e6e6e6" d="M612.6 915.3V960h100.6v-44.7c0-35.6 15.9-69.9 44.2-95C785.7 795 824 780.9 864 780.9v-89.6c-138.9 0-251.4 100.2-251.4 224zM160 691.3v89.6c40 0 78.4 14.1 106.6 39.4 28.3 25.2 44.2 59.4 44.2 95V960h100.6v-44.7c0-123.8-112.5-224-251.4-224z m0 0M864 288.1c-1-63.7-22.3-125.9-61.3-179.2-64.7 17.5-122.8 50.1-168.5 94.5C608.1 148.1 565.9 100 512 64c-53.7 36-95.7 84.1-121.6 139.4-45.7-44.4-104.1-77.1-168.9-94.5-39.1 53.4-60.3 115.5-61.3 179.2v44.7c0.1 155.7 128.7 287.7 301.6 310V960h100.6V642.9c173-22.2 301.5-154.2 301.6-310v-44.8z m0 0" /></svg>