<?xml version="1.0" standalone="no"?><!DOCTYPE svg PUBLIC "-//W3C//DTD SVG 1.1//EN" "http://www.w3.org/Graphics/SVG/1.1/DTD/svg11.dtd"><svg class="icon" width="200px" height="200.00px" viewBox="0 0 1024 1024" version="1.1" xmlns="http://www.w3.org/2000/svg"><path fill="#e6e6e6" d="M912 380.9v456.9c0 11.4-2.3 21.5-7 30-4.6 8.6-9.8 15.8-15.5 21.5-8.3 8.3-16.7 14.2-25.2 17.6-8.3 3.3-17.1 5.1-26 5.1h-658c-20.1-0.5-36.5-7.5-48.9-21.1-12.4-13.5-18.9-29.4-19.4-47.6V380.9l73.7-228.8c0-1.5 6-8.2 17.8-19.9 11.9-11.7 30.5-18.3 55.8-19.9h505.1c2.6-1 13.6 2.2 33 9.8 19.4 7.5 33 25.1 40.8 52.7L912 380.9z m-96.2-57L770 186.4H248.6l-40.4 137.4 607.6 0.1zM664.1 657.6c10.1-7.6 15.1-18 15.1-31.1 0-13.1-5-23.5-15.1-31.1-10.1-7.6-24-11.6-41.5-12H396c-17.6 0.4-31.4 4.4-41.5 12-10 7.6-15.2 18-15.2 31.1 0 13.1 5.1 23.5 15.1 31.1 10.1 7.6 23.9 11.5 41.5 11.5h226.6c17.6 0 31.5-3.8 41.6-11.5z m0 0" /></svg>