<?xml version="1.0" encoding="utf-8"?>
<!-- Generator: Adobe Illustrator 18.0.0, SVG Export Plug-In . SVG Version: 6.00 Build 0)  -->
<!DOCTYPE svg PUBLIC "-//W3C//DTD SVG 1.1//EN" "http://www.w3.org/Graphics/SVG/1.1/DTD/svg11.dtd">
<svg version="1.1" id="图层_1" xmlns="http://www.w3.org/2000/svg" xmlns:xlink="http://www.w3.org/1999/xlink" x="0px" y="0px"
	 viewBox="0 0 595.3 841.9" enable-background="new 0 0 595.3 841.9" xml:space="preserve">
<g>
	<g>
		<defs>
			<rect id="SVGID_1_" x="-113" y="10.9" width="819.8" height="820.7"/>
		</defs>
		<clipPath id="SVGID_2_">
			<use xlink:href="#SVGID_1_"  overflow="visible"/>
		</clipPath>
		<path clip-path="url(#SVGID_2_)" d="M-113.1,257.2v532.5c0,10.9,4.3,21.3,12,29c7.7,7.7,18.1,12,29,12h737.3
			c10.9,0,21.3-4.3,29-12c7.7-7.7,12-18.1,12-29V257.2H-113.1z M419.4,502.9h200.7v81.9H419.4V502.9z M245.3,535.3v58.6h-81.9v22.9
			h81.9v59h-81.9v68.8H91.7v-68.8H6.1v-59h85.6v-22.9H6.1v-58.6h65.1l-90.5-155.2h77.4l3.3,6.6c30.7,56.1,52.8,97.9,66.4,122.9
			l15.2-29.1l55.3-100.4h74.5l-91.3,155.2H245.3z M624.2,748.7H337.4v-81.9h286.7V748.7z M274.8,11.4H46.2
			c-13.8-0.2-26.7,6.6-34.4,18l-124.9,186.8h387.9V11.4z M317,11.4h229c13.7,0.1,26.5,7,34,18.4l126.2,186.4H317V11.4L317,11.4z
			 M317,11.4"/>
	</g>
</g>
</svg>
