<?xml version="1.0" standalone="no"?><!DOCTYPE svg PUBLIC "-//W3C//DTD SVG 1.1//EN" "http://www.w3.org/Graphics/SVG/1.1/DTD/svg11.dtd"><svg class="icon" width="200px" height="200.00px" viewBox="0 0 1024 1024" version="1.1" xmlns="http://www.w3.org/2000/svg"><path fill="#e6e6e6" d="M852.2 160H171.8c-33 0-59.8 27.4-59.8 61.3v581.4c0 33.9 26.7 61.3 59.8 61.3h680.5c33 0 59.8-27.4 59.8-61.3V221.3c-0.1-33.9-26.8-61.3-59.9-61.3zM523.8 829.9c-27.5 0-50-23.1-50-51.3 0-28.5 22.5-51.3 50-51.3 27.7 0 50 22.8 50 51.3 0 28.2-22.3 51.3-50 51.3z m333-169.5c0 15.4-12.3 27.7-27.2 27.7H196.8c-15 0-27-12.3-27-27.4V245.9c0-15.1 12.2-27.7 27-27.7h632.8c15 0 27.2 12.6 27.2 27.7v414.5zM690.2 291L469.7 519.2l-89.8-92.1-42.9 48 132.7 132.2L737 335z" /></svg>