<?xml version="1.0" encoding="utf-8"?>
<!-- Generator: Adobe Illustrator 18.0.0, SVG Export Plug-In . SVG Version: 6.00 Build 0)  -->
<!DOCTYPE svg PUBLIC "-//W3C//DTD SVG 1.1//EN" "http://www.w3.org/Graphics/SVG/1.1/DTD/svg11.dtd">
<svg version="1.1" id="图层_1" xmlns="http://www.w3.org/2000/svg" xmlns:xlink="http://www.w3.org/1999/xlink" x="0px" y="0px"
	 viewBox="0 0 595.3 841.9" enable-background="new 0 0 595.3 841.9" xml:space="preserve">
<g>
	<path d="M-65.9,232.6C-35.2,248,5.8,263.4,59.5,271c53.8,10.2,110.1,15.4,174.1,15.4s120.3-5.1,174.1-15.4
		c53.8-10.2,94.7-23,125.4-41c30.7-17.9,46.1-35.8,46.1-53.8v-53.8c0-20.5-15.4-38.4-46.1-53.8c-30.7-17.9-71.7-30.7-125.4-41
		C353.9,17.6,295,12.5,233.6,12.5c-61.4,0-120.3,5.1-174.1,15.4C5.8,38.1-35.2,50.9-65.9,66.2c-30.7,17.9-46.1,35.8-46.1,56.3v53.8
		C-112,196.8-96.6,214.7-65.9,232.6L-65.9,232.6z M-65.9,232.6"/>
	<g>
		<defs>
			<rect id="SVGID_1_" x="-112" y="11.9" width="817.9" height="818.9"/>
		</defs>
		<clipPath id="SVGID_2_">
			<use xlink:href="#SVGID_1_"  overflow="visible"/>
		</clipPath>
		<path clip-path="url(#SVGID_2_)" d="M-65.9,396.5c30.7,17.9,71.7,30.7,125.4,41c53.8,10.2,110.1,15.4,174.1,15.4
			s117.8,5.1,171.5-5.1c0,0,15.4-2.6,28.2-7.7c25.6-51.2,89.6-84.5,145.9-87v-84.5c-35.8,23-84.5,41-145.9,53.8
			c-61.4,12.8-128,17.9-199.7,17.9c-71.7,0-138.2-5.1-199.7-17.9C-27.5,312-76.2,291.5-112,268.5v71.7
			C-112,360.6-96.6,378.6-65.9,396.5L-65.9,396.5z M-65.9,560.3c30.7,17.9,71.7,30.7,125.4,41c53.8,10.2,110.1,15.4,174.1,15.4
			c58.9,0,97.3,2.6,148.5-7.7l35.8-41c-7.7-15.4-10.2-51.2-10.2-74.2C348.8,504,302.7,504,236.2,504c-71.7,0-138.2-5.1-199.7-17.9
			c-61.4-12.8-110.1-30.7-145.9-53.8V504C-112,527-96.6,545-65.9,560.3L-65.9,560.3z M233.6,670.4c-71.7,0-138.2-5.1-199.7-17.9
			c-61.4-12.8-110.1-30.7-145.9-53.8v71.7c0,20.5,15.4,38.4,46.1,53.8c30.7,17.9,71.7,30.7,125.4,41
			c53.8,10.2,110.1,15.4,174.1,15.4h25.6c2.6-15.4,5.1-23,17.9-46.1l58.9-66.6C300.2,670.4,272,670.4,233.6,670.4L233.6,670.4z
			 M233.6,670.4"/>
		<path clip-path="url(#SVGID_2_)" d="M694.4,483.5l-43.5,46.1c-20.5,20.5-51.2,20.5-71.7,2.6c-20.5-20.5-20.5-51.2-2.6-71.7
			l43.5-46.1c-5.1-2.6-12.8-5.1-20.5-5.1c-74.2-17.9-145.9,28.2-163.8,102.4c-5.1,28.2-5.1,53.8,5.1,76.8L313,731.8
			c-20.5,23-20.5,61.4,2.6,81.9c23,23,58.9,20.5,79.4-2.6l125.4-140.8c5.1,2.6,10.2,2.6,15.4,5.1c74.2,17.9,145.9-28.2,163.8-102.4
			C709.8,539.8,704.6,511.7,694.4,483.5L694.4,483.5z M694.4,483.5"/>
	</g>
</g>
</svg>
