<?xml version="1.0" standalone="no"?><!DOCTYPE svg PUBLIC "-//W3C//DTD SVG 1.1//EN" "http://www.w3.org/Graphics/SVG/1.1/DTD/svg11.dtd"><svg class="icon" width="200px" height="200.00px" viewBox="0 0 1024 1024" version="1.1" xmlns="http://www.w3.org/2000/svg"><path  d="M867.523459 98.398385H156.233282c-15.325336 0-30.042523 6.081482-40.867562 16.906521-10.825039 10.825039-16.906521 25.542226-16.906521 40.867561v711.290177c0 15.325336 6.081482 30.042523 16.906521 40.867561 10.825039 10.825039 25.542226 16.906521 40.867562 16.906521h711.290177c15.325336 0 30.042523-6.081482 40.867561-16.906521 10.825039-10.825039 16.906521-25.542226 16.906521-40.867561V156.172467c0-15.325336-6.081482-30.042523-16.906521-40.867561-10.825039-10.825039-25.542226-16.906521-40.867561-16.906521z m-1.946075 727.588549c-0.12163 21.893337-18.001188 39.651265-39.894524 39.651265H197.708992C175.937285 865.39494 158.300986 847.758641 158.179356 825.986934V198.013066c0-10.581779 4.257038-20.67704 11.676446-28.218078 7.419408-7.419408 17.636299-11.676446 28.218079-11.676447H825.926119c10.581779 0 20.67704 4.257038 28.218079 11.676447 7.419408 7.419408 11.676446 17.636299 11.676446 28.218078l-0.24326 627.973868z m0 0"  /><path  d="M237.846775 262.720038v159.456468H785.788336V262.720038H237.846775zM737.136477 380.579166H281.511819V306.506711H737.136477v74.072455zM237.846775 611.553866H785.788336v54.854971H237.846775v-54.854971z m0 119.561943H785.788336v54.854971H237.846775v-54.854971z m0 0"  /></svg>