<?xml version="1.0" standalone="no"?><!DOCTYPE svg PUBLIC "-//W3C//DTD SVG 1.1//EN" "http://www.w3.org/Graphics/SVG/1.1/DTD/svg11.dtd"><svg class="icon" width="200px" height="200.00px" viewBox="0 0 1024 1024" version="1.1" xmlns="http://www.w3.org/2000/svg"><path  d="M200.202399 571.172823c17.028151 0 31.13719 12.406224 33.813042 28.704597l0.486519 5.594964V851.407531h339.346716V636.609574c0-34.42119 27.853189-62.274379 62.274379-62.27438h311.371897c34.42119 0 62.274379 27.853189 62.274379 62.27438v311.371896c0 34.42119-27.853189 62.274379-62.274379 62.27438h-311.371897c-34.42119 0-62.274379-27.853189-62.274379-62.27438v-27.974818H200.202399c-16.784891 0-31.01556-12.162965-33.813042-28.704597l-0.486518-5.594964V605.472384c0-9.122224 3.648889-17.757928 9.973631-24.2043 6.446371-6.446371 15.203706-10.095261 24.325929-10.095261z m741.089441 71.639863H642.326167v298.965672h298.965673V642.812686zM449.299917 387.512056c0 34.42119-27.853189 62.274379-62.27438 62.274379h-311.371896c-34.42119 0-62.274379-27.853189-62.27438-62.274379v-311.371897c0-34.42119 27.853189-62.274379 62.27438-62.274379h311.371896c34.42119 0 62.274379 27.853189 62.27438 62.274379v90.249198h435.920656c17.028151 0 31.13719 12.406224 33.813041 28.704597l0.486519 5.594964v217.960328c0.12163 17.879558-13.62252 32.840005-31.502079 34.29956-17.879558 1.459556-33.813042-11.068298-36.610523-28.704596l-0.486519-5.594964v-183.660768l-401.621095-0.121629v152.645207zM380.822425 82.343271H81.856753v298.965673H380.822425V82.343271z m0 0" /></svg>