<?xml version="1.0" encoding="utf-8"?>
<!-- Generator: Adobe Illustrator 18.0.0, SVG Export Plug-In . SVG Version: 6.00 Build 0)  -->
<!DOCTYPE svg PUBLIC "-//W3C//DTD SVG 1.1//EN" "http://www.w3.org/Graphics/SVG/1.1/DTD/svg11.dtd">
<svg version="1.1" id="图层_1" xmlns="http://www.w3.org/2000/svg" xmlns:xlink="http://www.w3.org/1999/xlink" x="0px" y="0px"
	 viewBox="0 0 595.3 841.9" enable-background="new 0 0 595.3 841.9" xml:space="preserve">
<g>
	<g>
		<defs>
			<rect id="SVGID_1_" x="5" y="141.9" width="584.9" height="559.9"/>
		</defs>
		<clipPath id="SVGID_2_">
			<use xlink:href="#SVGID_1_"  overflow="visible"/>
		</clipPath>
		<path clip-path="url(#SVGID_2_)" d="M5,305.3h53.3c1.3-53.7,21.4-98.1,63.8-131.3c33.4-26.1,72-34.2,113.9-31v65
			c-1.5,0-2.8-0.1-4.2,0c-11.2,0.5-22.4,0.2-33.4,1.7c-17.2,2.2-32.1,10.1-45,21.5c-16.3,14.4-26.6,32.5-31.1,53.7
			c-1.4,6.5-1.8,13.1-2.6,20h48.2c-27.4,32.1-54.4,63.5-81.5,95.3C59.2,368.7,32.3,337.3,5,305.3L5,305.3z M277.5,694.7
			c-5.6,4.3-12.1,5.9-19,5.9c-68.6,0-137.2,0.1-205.9,0c-15.4,0-26.3-8.3-30.3-22.6c-0.8-2.9-1.1-5.9-1.1-8.9c-0.1-61-0.1-122,0-183
			c0-15.4,8.3-26.6,22.7-30.5c3.2-0.9,6.6-1.1,9.9-1.1c33.9-0.1,67.8-0.1,101.6-0.1c34,0,68,0,102,0c7.6,0,14.7,1.6,20.8,6.5
			c6.9,5.5,10.7,12.8,11.4,21.6c0.1,1.2,0.1,2.4,0.1,3.5c0,61,0,122,0,183C289.7,679.6,286,688.3,277.5,694.7L277.5,694.7z
			 M302.6,382.5c-8.2-6.2-12.2-14.6-12.2-24.8c-0.1-61.6-0.1-123.3,0-184.9c0-14.9,8.8-25.9,23-29.6c3-0.8,6.2-1,9.3-1
			c68-0.1,136,0,203.9,0c13,0,23.3,5,29,17c1.9,4.1,3,9.1,3.1,13.7c0.2,61.6,0.2,123.3,0.1,184.9c0,14.7-8.5,25.7-22.7,29.5
			c-3.2,0.9-6.6,1.1-9.9,1.1c-33.9,0.1-67.8,0-101.6,0h-102C315.4,388.4,308.5,386.9,302.6,382.5L302.6,382.5z M536.5,538
			c-1.6,55.9-23,101.4-68.3,134.5c-32.5,23.8-69.6,30.7-109.4,27.7v-65.1c6.3,0,12.6,0.2,18.8-0.1c7.1-0.3,14.3-0.5,21.1-1.9
			c26.1-5.3,46.1-19.8,60.5-42c10.3-15.9,15.2-33.5,15.5-52.9h-47.9c27.5-32.2,54.5-63.6,81.6-95.4c27.1,31.7,54,63.1,81.4,95.1
			H536.5L536.5,538z M536.5,538"/>
	</g>
</g>
</svg>
