<?xml version="1.0" encoding="utf-8"?>
<!-- Generator: Adobe Illustrator 18.0.0, SVG Export Plug-In . SVG Version: 6.00 Build 0)  -->
<!DOCTYPE svg PUBLIC "-//W3C//DTD SVG 1.1//EN" "http://www.w3.org/Graphics/SVG/1.1/DTD/svg11.dtd">
<svg version="1.1" id="图层_1" xmlns="http://www.w3.org/2000/svg" xmlns:xlink="http://www.w3.org/1999/xlink" x="0px" y="0px"
	 viewBox="0 0 595.3 841.9" enable-background="new 0 0 595.3 841.9" xml:space="preserve">
<g>
	<g>
		<defs>
			<rect id="SVGID_1_" x="-109" y="13.9" width="812.9" height="814.8"/>
		</defs>
		<clipPath id="SVGID_2_">
			<use xlink:href="#SVGID_1_"  overflow="visible"/>
		</clipPath>
		<path clip-path="url(#SVGID_2_)" d="M646.2,14.5H-52.2c-36.6,0-56.9,44.7-56.9,81.2v499.5c0,40.6,20.3,69,56.9,69h268v81.2h-77.1
			c-8.1,0-4.1,16.3-4.1,24.3v48.7c0,12.2-4,8.1,4.1,8.1h312.7c8.1,0,4.1,4.1,4.1-4.1v-48.7c0-8.2,4-24.4-4.1-24.4h-73.1v-81.2h268.1
			c40.6,0,56.8-28.4,56.8-69V95.7C703.2,59.2,682.9,14.5,646.2,14.5L646.2,14.5z M569.1,351.5C496,445,402.6,501.8,297,501.8
			c-105.6,0-199-56.9-272.1-150.3c-4.1-8.2-4.1-20.3,0-24.4C98,233.8,191.4,172.9,297,172.9c105.6,0,199,56.9,272.1,150.3
			C573.2,331.3,573.2,343.4,569.1,351.5L569.1,351.5z M569.1,351.5"/>
	</g>
	<path d="M288.9,201.3c-72.5,3.5-130.5,61.5-134,134c-4.1,85.3,65,158.4,150.3,150.3c69-4.1,129.9-60.9,134-134
		c2.2-40.5-12.9-80-41.6-108.7C368.9,214.2,329.4,199.1,288.9,201.3L288.9,201.3z M301.1,404.3c-36.5,4.1-64.9-28.4-64.9-64.9
		c0-28.4,24.3-52.8,56.8-56.9c36.6-4.1,65,28.4,65,64.9C353.1,376.6,330.3,399.5,301.1,404.3L301.1,404.3z M301.1,404.3"/>
</g>
</svg>
