<?xml version="1.0" standalone="no"?><!DOCTYPE svg PUBLIC "-//W3C//DTD SVG 1.1//EN" "http://www.w3.org/Graphics/SVG/1.1/DTD/svg11.dtd"><svg class="icon" width="200px" height="200.00px" viewBox="0 0 1024 1024" version="1.1" xmlns="http://www.w3.org/2000/svg"><path  d="M33.5477 1024C18.402012 1024 5.982547 1011.731992 5.982547 996.586304V27.565153C5.982547 12.419465 18.402012 0 33.5477 0h725.781393l207.344476 235.212543v128.738352h-47.860376v-95.266381L732.066854 56.947789H78.681852c-13.63112 0-24.838929 11.056353-24.838929 24.838929v860.426564c0 6.664103 2.574767 12.873835 7.26993 17.568999 4.695163 4.695163 11.056353 7.26993 17.568999 7.26993h471.333826v56.039048"  /><path  d="M682.994823 226.730957H182.884189c-8.935956-0.454371-17.417542 4.089336-21.961249 11.813637s-4.543707 17.266085 0 24.838929c4.543707 7.724301 13.025292 12.268008 21.961249 11.813637H682.994823c13.025292-0.605828 23.172903-11.207809 23.172904-24.233101s-10.299068-23.778731-23.172904-24.233102zM635.285904 441.345363H182.884189c-8.935956-0.454371-17.417542 4.089336-21.961249 11.813637s-4.543707 17.266085 0 24.838929c4.543707 7.724301 13.025292 12.268008 21.961249 11.813637h452.553172c13.025292-0.605828 23.172903-11.207809 23.172904-24.233101 0-12.873835-10.299068-23.627274-23.324361-24.233102zM396.74131 656.111226H182.884189c-13.025292 0.605828-23.172903 11.207809-23.172904 24.233102s10.299068 23.627274 23.172904 24.233101H396.74131c13.025292-0.605828 23.172903-11.207809 23.172904-24.233101 0-12.873835-10.147611-23.627274-23.172904-24.233102zM1007.264014 454.370655c-6.512646-3.937879-14.539861-4.39225-21.506877-0.908741L402.193758 743.198935c-9.541784 4.84662-14.388404 15.751516-11.510723 26.202041l1.363112 3.786422 2.120396 3.332052 2.574767 3.029137c2.42331 2.42331 5.452448 4.089336 8.7845 5.149535l196.288123 61.642952 30.13992-37.409851-160.241384-50.283686 439.52788-218.552285-234.909629 284.587487c-0.454371 0.605828-1.060198 1.363112-1.514569 1.96894l-27.262239 33.926342v140.097619c0 12.268008 9.996154 22.264162 22.264162 22.264162s22.264162-9.996154 22.264162-22.264162v-126.315042l213.554208 66.943943 3.786422 0.757284 3.786423 0.302914c11.056353 0.302914 20.598136-7.572844 22.567075-18.326283l81.786718-446.797811 0.302914-2.271853v-2.271854c0-7.421387-4.089336-14.388404-10.601982-18.326283M896.549031 891.929596l-172.812306-54.221565 234.758172-284.284573L896.549031 891.929596z"  /></svg>