<?xml version="1.0" standalone="no"?><!DOCTYPE svg PUBLIC "-//W3C//DTD SVG 1.1//EN" "http://www.w3.org/Graphics/SVG/1.1/DTD/svg11.dtd"><svg class="icon" width="200px" height="200.00px" viewBox="0 0 1024 1024" version="1.1" xmlns="http://www.w3.org/2000/svg"><path  d="M686.964248 404.661836H436.528804c-8.878964-0.12163-17.39304 3.40563-23.717781 9.608742s-9.730372 14.838817-9.608742 23.717782c-0.729778 17.14978 12.162965 31.745338 29.312745 33.326523h250.313814c19.339114 0.486519 35.637487-14.109039 37.340301-33.326523 0.12163-8.878964-3.284-17.39304-9.608742-23.717782-6.203112-6.203112-14.838817-9.730372-23.596151-9.608742z m0 0M686.964248 571.902601H436.528804c-8.878964-0.12163-17.39304 3.40563-23.717781 9.608742s-9.730372 14.838817-9.608742 23.717782c-0.243259 7.784297 2.797482 15.325336 8.392445 20.920299 5.473334 5.473334 13.136002 8.514075 20.9203 8.270816h250.313814c17.514669-0.486519 32.596745-12.406224 37.340301-29.191115 0.12163-8.878964-3.284-17.39304-9.608742-23.717782-6.203112-6.203112-14.838817-9.730372-23.596151-9.608742z m0 0M682.82884 734.643069H432.515026c-9.122224-0.851408-18.122817 2.432593-24.569189 8.878964-6.446371 6.446371-9.730372 15.446965-8.878964 24.569189-0.12163 8.878964 3.40563 17.39304 9.608742 23.717781 6.324742 6.324742 14.838817 9.730372 23.717781 9.608743h250.313814c18.487706 0 33.326523-14.960447 33.326523-33.326524 0.12163-18.487706-14.838817-33.448153-33.204893-33.448153z m0 0M283.275448 438.353249c0 18.487706 14.960447 33.326523 33.326524 33.326523 18.487706 0 33.326523-14.960447 33.326523-33.326523 0-18.487706-14.960447-33.326523-33.326523-33.326524-18.366077-0.12163-33.326523 14.838817-33.326524 33.326524z m0 0M283.275448 603.161421c0 18.487706 14.960447 33.326523 33.326524 33.326523 18.487706 0 33.326523-14.960447 33.326523-33.326523s-14.960447-33.326523-33.326523-33.326524c-18.366077 0-33.326523 14.838817-33.326524 33.326524z m0 0"  /><path  d="M283.275448 767.969593c0 18.487706 14.960447 33.326523 33.326524 33.326523 18.487706 0 33.326523-14.960447 33.326523-33.326523 0-18.487706-14.960447-33.326523-33.326523-33.326524-18.366077 0-33.326523 14.960447-33.326524 33.326524z m0 0M335.211308 295.681672H684.896544c13.136002 0.12163 25.785485-5.108445 34.907708-14.595557 8.635705-9.487112 11.919705-22.623114 8.757335-35.029339l-11.676446-43.543413c-8.392446-22.379855-28.704597-38.191709-52.544008-40.745932h-46.584155c-2.919112 0-2.919112 0-2.919111-2.919112L603.40468 115.183276c-8.392446-22.379855-28.704597-38.191709-52.422378-40.745932h-75.77527c-24.08267-0.608148-45.489488 14.838817-52.544008 37.82682l-11.676446 43.543414-2.919112 2.919112H361.361682c-24.569189 0.608148-45.732747 17.14978-52.422378 40.745931l-11.676446 43.543414c-3.040741 12.406224 0.12163 25.420596 8.757334 34.907709 0 11.676446 14.595558 17.514669 29.191116 17.514669v0.243259z m20.43378-84.532604l2.919112-2.919112h46.705785c24.569189-0.608148 45.732747-17.14978 52.422378-40.745932l11.676446-43.543413 2.919111-2.919112h75.77527c2.919112 0 2.919112 0 2.919112 2.919112l11.676446 43.543413c6.689631 23.596152 27.853189 40.137784 52.422378 40.745932h46.584155c2.919112 0 2.919112 0 2.919111 2.919112l8.757335 34.907708-329.251455-2.797482 11.554816-32.110226z m0 0"  /><path  d="M842.406937 189.62062h-88.546383v57.652453h81.613493v650.475353H187.674546v-650.718612h81.613493v-57.652453H180.863285c-27.123411-0.729778-49.868155 20.55541-50.719562 47.800451v664.584393c0 13.987409 6.081482 27.245041 16.663261 36.367264 8.027557 7.297779 18.487706 11.433187 29.434375 11.676446 1.581185 0.12163 3.162371 0.12163 4.743556 0h661.543651c27.123411 0.729778 49.868155-20.55541 50.719563-47.678822V237.421071c-1.946074-26.758522-24.08267-47.557192-50.841192-47.800451z m0 0"  /></svg>