<?xml version="1.0" standalone="no"?><!DOCTYPE svg PUBLIC "-//W3C//DTD SVG 1.1//EN" "http://www.w3.org/Graphics/SVG/1.1/DTD/svg11.dtd"><svg class="icon" width="200px" height="200.00px" viewBox="0 0 1024 1024" version="1.1" xmlns="http://www.w3.org/2000/svg"><path  d="M938.666667 213.333333c0-98.133333-217.6-149.333333-426.666667-149.333333S85.333333 115.2 85.333333 213.333333v597.333334c0 98.133333 221.866667 149.333333 426.666667 149.333333s426.666667-51.2 426.666667-149.333333V213.333333z m-42.666667 405.333334c0 42.666667-145.066667 106.666667-384 106.666666s-384-64-384-106.666666v-123.733334c72.533333 51.2 230.4 81.066667 384 81.066667s311.466667-29.866667 384-81.066667v123.733334z m0-192c0 42.666667-145.066667 106.666667-384 106.666666S128 469.333333 128 426.666667V281.6c72.533333 51.2 230.4 81.066667 384 81.066667s311.466667-29.866667 384-81.066667V426.666667z m-384-320c238.933333 0 384 64 384 106.666666s-145.066667 106.666667-384 106.666667S128 256 128 213.333333s145.066667-106.666667 384-106.666666z m0 810.666666c-238.933333 0-384-64-384-106.666666v-123.733334c72.533333 51.2 230.4 81.066667 384 81.066667s311.466667-29.866667 384-81.066667V810.666667c0 42.666667-145.066667 106.666667-384 106.666666z"  /></svg>