<?xml version="1.0" encoding="utf-8"?>
<!-- Generator: Adobe Illustrator 18.0.0, SVG Export Plug-In . SVG Version: 6.00 Build 0)  -->
<!DOCTYPE svg PUBLIC "-//W3C//DTD SVG 1.1//EN" "http://www.w3.org/Graphics/SVG/1.1/DTD/svg11.dtd">
<svg version="1.1" id="图层_1" xmlns="http://www.w3.org/2000/svg" xmlns:xlink="http://www.w3.org/1999/xlink" x="0px" y="0px"
	 viewBox="0 0 595.3 841.9" enable-background="new 0 0 595.3 841.9" xml:space="preserve">
<g>
	<g>
		<defs>
			<rect id="SVGID_1_" x="-18" y="105.9" width="630.9" height="631.9"/>
		</defs>
		<clipPath id="SVGID_2_">
			<use xlink:href="#SVGID_1_"  overflow="visible"/>
		</clipPath>
		<path clip-path="url(#SVGID_2_)" d="M225.9,126.8H22.5c-22.5,0-40.6,18.2-40.6,40.6v203.4c0,22.5,18.2,40.6,40.6,40.6h203.4
			c22.5,0,40.6-18.2,40.6-40.6V167.5C266.6,145,248.4,126.8,225.9,126.8L225.9,126.8z M225.9,452.2H22.5
			c-22.5,0-40.6,18.2-40.6,40.6v203.4c0,22.5,18.2,40.6,40.6,40.6h203.4c22.5,0,40.6-18.2,40.6-40.6V492.8
			C266.6,470.5,248.4,452.2,225.9,452.2L225.9,452.2z M551.3,452.2H348c-22.5,0-40.6,18.2-40.6,40.6v203.4
			c0,22.5,18.2,40.6,40.6,40.6h203.4c22.5,0,40.6-18.2,40.6-40.6V492.8C592,470.5,573.8,452.2,551.3,452.2L551.3,452.2z
			 M603.1,246.9L471.3,115.3c-12.2-12.2-31.8-12.2-43.9,0L295.8,246.9c-12.2,12.2-12.2,31.8,0,43.9l131.7,131.7
			c12.2,12.2,31.8,12.2,43.9,0l131.7-131.7C615.2,278.8,615.2,259.1,603.1,246.9L603.1,246.9z M603.1,246.9"/>
	</g>
</g>
</svg>
